<?xml version="1.0" encoding="UTF-8" standalone="no"?>
<!DOCTYPE svg PUBLIC "-//W3C//DTD SVG 1.1//EN" "http://www.w3.org/Graphics/SVG/1.1/DTD/svg11.dtd">
<svg width="100%" height="100%" viewBox="0 0 1024 330" version="1.1" xmlns="http://www.w3.org/2000/svg" xmlns:xlink="http://www.w3.org/1999/xlink" xml:space="preserve" xmlns:serif="http://www.serif.com/" style="fill-rule:evenodd;clip-rule:evenodd;stroke-linejoin:round;stroke-miterlimit:2;">
    <g id="Background" transform="matrix(1,0,0,1,0,-348)">
        <!-- Dark background removed for transparency -->
        <path d="M177.294,545.711C220.354,588.414 226.842,593.966 220.487,594.192C216.959,594.317 180.397,595.618 176.358,593.772C173.51,592.471 138.253,556.128 98.374,517.631C98.025,517.295 92.181,511.653 97.501,511.645C143.453,511.573 143.595,511.842 144.459,512.546C146.4,514.129 149.447,518.152 177.294,545.711Z" style="fill:rgb(75,182,113);"/>
        <path d="M226.51,510.929C228.45,511.266 228.447,511.23 228.605,511.293C229.4,511.611 269.588,552.283 273.13,555.868C307.087,590.234 310.286,592.118 306.521,593.546C303.301,594.768 303.17,594.098 263.481,593.858C261.929,593.848 261.369,594.248 237.898,571.102C233.267,566.535 195.434,529.225 180.561,513.455C177.383,510.086 182.628,511.659 226.51,510.929Z" style="fill:rgb(75,182,113);"/>
        <path d="M250.3,471.306C229.943,492.011 229.555,492.912 226.495,492.897C183.55,492.692 180.158,493.801 181.798,490.618C182.014,490.199 259.139,411.236 262.493,410.47C265.535,409.775 265.577,410.202 301.5,410.217C302.042,410.218 311.708,409.138 306.035,415.049C304.267,416.891 301.626,419.065 295.068,426.079C292.274,429.067 259.396,462.125 250.3,471.306Z" style="fill:rgb(75,183,114);"/>
        <path d="M195.499,410.836C220.779,410.812 225.928,409.989 222.439,413.443C150.331,484.83 150.607,485.088 144.278,491.234C142.52,492.942 142.071,492.032 101.494,492.217C101.052,492.219 94.557,492.249 96.627,489.6C97.04,489.073 163.284,422.88 169.085,417.083C173.408,412.763 172.731,411.7 176.562,410.892C178.044,410.58 177.992,410.8 195.499,410.836Z" style="fill:rgb(75,183,113);"/>
        <path d="M650.939,493.507C650.644,495.599 651.33,505.019 643.052,515.093C637.419,521.948 619.022,528.256 608.293,514.681C605.438,511.07 606.548,515.738 606.015,520.428C605.812,522.217 592.202,523.477 592.168,519.513C592.113,513.026 591.497,441.215 592.247,438.422C592.774,436.461 606.288,436.421 606.778,438.423C607.785,442.537 606.918,461.498 606.827,463.503C606.709,466.071 605.661,467.065 607.47,466.991C608.326,466.957 615.277,455.829 632.561,459.257C651.26,462.965 650.972,490.398 650.939,493.507Z" style="fill:rgb(254,254,254);"/>
        <path d="M806.073,490.5C807.754,446.282 842.311,459.083 847.289,464.741C850.736,468.66 849.581,462.91 849.65,439.502C849.66,436.101 851.142,437.174 854.499,437.172C860.924,437.167 863.9,435.071 863.899,441.499C863.882,519.959 863.934,519.966 863.822,520.602C863.59,521.911 854.319,521.795 853.487,521.784C848.924,521.727 852.698,509.613 848.863,514.803C840.268,526.435 820.25,524.28 812.891,514.187C805.136,503.549 806.228,492.088 806.073,490.5Z" style="fill:rgb(254,254,254);"/>
        <path d="M763.476,459.086C769.94,458.592 792.193,455.922 797.8,482.45C800.017,492.936 797.631,517.137 777.555,521.685C743.222,529.462 732.92,495.276 742.336,474.428C747.557,462.869 761.443,459.569 763.476,459.086Z" style="fill:rgb(254,254,254);"/>
        <path d="M458.935,495.508C455.712,536.524 390.667,531.717 401.263,480.44C405.372,460.552 426.715,456.55 437.54,459.355C461.704,465.616 459.177,487.668 458.935,495.508Z" style="fill:rgb(254,254,254);"/>
        <path d="M319.072,474.494C319.36,472.593 321.333,459.539 326.842,451.756C328.424,449.521 333.203,443.144 342.447,439.366C377.067,425.215 398.394,465.693 388.504,465.737C380.261,465.773 377.672,469.141 374.734,461.403C368.277,444.397 339.922,444.935 335.099,469.422C326.628,512.429 367.884,521.358 376.049,496.387C376.928,493.699 379.7,494.069 389.523,494.223C396.449,494.332 383.844,526.164 353.482,522.641C314.682,518.139 319.036,478.975 319.072,474.494Z" style="fill:rgb(254,254,254);"/>
        <path d="M673.935,476.506C673.944,479.131 671.176,509.017 696.497,510.058C710.04,510.615 714.856,497.305 715.507,495.503C716.237,493.487 730.438,493.594 730.666,495.472C730.87,497.149 728.298,506.087 724.122,511.196C712.705,525.164 669.407,535.569 659.27,489.543C659.019,488.403 653.047,448.22 685.412,438.184C718.599,427.893 736.159,465.433 728.531,465.714C715.844,466.182 715.618,465.633 715.212,464.644C713.353,460.122 712.452,453.831 701.561,450.311C697.3,448.933 679.807,448.694 675.293,467.436C675.122,468.149 675.193,468.108 673.935,476.506Z" style="fill:rgb(254,254,254);"/>
        <path d="M558.52,459.061C582.825,461.616 578.913,480.516 578.915,506.5C578.916,513.309 579.533,521.689 577.556,521.784C565.815,522.348 565.543,521.485 565.438,520.516C565.265,518.927 566.557,511.663 563.215,516.134C553.249,529.466 517.589,522.04 526.265,496.419C532.504,477.991 564.487,487.542 564.554,482.505C564.573,481.07 565.849,471.729 556.576,470.182C542.192,467.783 541.979,478.052 538.486,477.67C530.719,476.821 526.211,477.871 528.402,472.46C534.672,456.971 555.893,458.831 558.52,459.061Z" style="fill:rgb(254,254,254);"/>
        <path d="M875.041,485.479C878.295,448.305 931.562,448.612 930.305,489.488C930.058,497.533 925.525,493.365 891.5,493.9C885.769,493.99 890.827,509.607 900.547,511.073C912.536,512.881 916.763,503.417 917.396,503.227C918.813,502.803 928.407,505.443 928.486,505.518C933.487,510.295 909.439,531.437 888.786,519.026C871.855,508.852 874.893,488.669 875.041,485.479Z" style="fill:rgb(254,254,254);"/>
        <path d="M833.069,573.492C834.553,553.939 851.955,554.742 857.24,559.845C860.882,563.363 859.55,555.687 859.561,551.5C859.575,545.788 857.778,543.078 863.511,543.174C866.406,543.223 865.818,544.933 865.817,586.501C865.817,592.921 867.886,596.327 861.483,595.591C859.106,595.317 860.913,589.132 858.256,592.086C853.291,597.608 843.761,596.531 839.749,593.193C831.235,586.106 833.091,575.074 833.069,573.492Z" style="fill:rgb(253,253,253);"/>
        <path d="M499.125,454.5C499.128,445.703 498.911,438.327 499.626,437.629C500.308,436.964 500.32,436.952 511.529,437.182C515.084,437.255 513.474,438.966 513.477,442.5C513.549,521.159 513.133,521.46 512.569,521.653C511.912,521.879 500.742,521.841 500.428,521.764C498.954,521.405 499.138,520.654 499.125,454.5Z" style="fill:rgb(254,254,254);"/>
        <path d="M483.93,487.5C484.211,521.014 483.765,521.567 482.556,521.794C482.369,521.829 471.501,521.787 471.45,521.783C468.989,521.565 470.396,516.567 469.974,464.5C469.763,438.574 469.256,437.323 471.439,437.213C483.47,436.605 483.78,437.396 483.874,438.391C484.056,440.308 483.926,440.307 483.93,487.5Z" style="fill:rgb(254,254,254);"/>
        <path d="M910.505,595.93C879.043,593.984 892.384,547.711 916.323,557.949C930.915,564.19 931.694,594.373 910.505,595.93Z" style="fill:rgb(253,253,253);"/>
        <path d="M414.927,487.511C415.999,481.955 414.968,481.691 417.964,476.802C418.533,475.874 420.954,473.137 422.422,472.367C449.546,458.131 453.452,515.242 427.444,510.741C412.65,508.181 414.944,489.589 414.927,487.511Z" style="fill:rgb(29,29,33);"/>
        <path d="M768.507,511.037C760.814,509.848 753.095,507.324 753.923,487.508C754.928,463.456 785.344,464.098 783.764,491.512C782.9,506.499 778.659,509.934 768.507,511.037Z" style="fill:rgb(29,29,33);"/>
        <path d="M850.062,487.502C850.028,495.888 851.709,508.581 836.513,510.66C813.725,513.777 815.9,460.929 841.614,471.2C848.864,474.096 849.931,486.039 850.062,487.502Z" style="fill:rgb(29,29,33);"/>
        <path d="M636.085,495.486C632.549,520.14 607.465,512.215 606.925,494.485C606.792,490.123 604.49,471.2 621.501,470.352C636.232,469.618 636.201,487.576 636.198,489.507C636.195,491.5 636.088,493.493 636.085,495.486Z" style="fill:rgb(29,29,33);"/>
        <path d="M740.497,549.943C739.506,550.051 730.615,551.024 729.917,556.533C728.069,571.122 759.235,560.078 758.901,583.522C758.695,598.039 726.808,602.732 720.996,584.383C720.353,582.354 726.37,578.89 728.716,583.394C733.53,592.64 747.297,589.238 750.186,586.217C760.98,574.928 728.922,573.451 723.843,564.281C712.381,543.586 753.856,533.819 758.034,555.556C758.524,558.108 752.373,558.234 751.526,557.47C748.393,554.64 750.437,551.145 740.497,549.943Z" style="fill:rgb(253,253,254);"/>
        <path d="M805.495,595.944C791.654,594.589 793.905,584.299 793.885,565.499C793.878,559.332 792.461,556.246 798.584,557.144C802.969,557.787 794.907,588.468 805.562,590.019C820.494,592.192 817.328,575.153 817.331,565.5C817.333,559.695 815.67,557.024 821.51,557.1C824.677,557.141 823.866,558.946 823.911,586.5C823.922,592.973 825.942,596.334 819.461,595.677C817.192,595.447 818.871,589.33 816.294,592.142C813.093,595.635 806.41,595.906 805.495,595.944Z" style="fill:rgb(253,253,253);"/>
        <path d="M898.951,575.506C899.164,574.42 900.99,565.115 905.395,563.268C921.23,556.627 925.767,585.709 912.403,590.008C900.163,593.946 899.055,577.085 898.951,575.506Z" style="fill:rgb(28,28,32);"/>
        <path d="M850.494,590.096C849.535,590.008 842.486,589.365 840.407,583.539C835.006,568.4 847.887,556.971 856.247,564.77C857.218,565.676 867.185,585.919 850.494,590.096Z" style="fill:rgb(28,28,33);"/>
        <path d="M781.5,563.054C778.031,563.472 777.227,562.763 777.138,564.424C775.791,589.683 778.459,590.052 780.532,590.154C789.608,590.603 783.346,595.743 782.55,595.819C766.112,597.384 771.549,579.115 770.793,564.436C770.667,561.976 765.65,564.223 764.982,561.462C764.135,557.961 764.835,557.303 768.494,557.09C772.098,556.879 770.505,550.216 771.412,549.388C776.089,545.115 776.784,549.265 777.133,555.563C777.258,557.81 783.577,556.779 784.369,557.624C787.415,560.875 785.879,562.197 781.5,563.054Z" style="fill:rgb(253,253,253);"/>
        <path d="M558.499,493.919C561.915,493.963 565.31,492.489 564.49,500.499C562.437,520.546 530.872,511.52 540.791,497.739C543.366,494.161 557.05,493.942 558.499,493.919Z" style="fill:rgb(26,26,31);"/>
        <path d="M906.445,469.945C907.714,470.356 917.844,473.633 916.232,483.446C915.926,485.303 889.502,485.086 889.158,483.619C888.981,482.867 890.248,476.806 893.933,472.952C897.123,469.617 905.416,469.909 906.445,469.945Z" style="fill:rgb(26,26,30);"/>
        <path d="M877.047,585.501C876.957,575.386 877.014,575.513 877.043,565.5C877.062,558.697 876.357,554.67 882.596,557.333C883.82,557.855 883.879,595.03 882.514,595.527C875.17,598.203 876.998,593.239 877.047,585.501Z" style="fill:rgb(253,253,253);"/>
        <path d="M879.466,543.142C880.102,543.213 886.852,543.975 884.392,549.441C881.334,556.234 868.459,546.597 879.466,543.142Z" style="fill:rgb(253,253,253);"/>
    </g>
</svg>
